<svg xmlns="http://www.w3.org/2000/svg" width="45.207" height="45.207" viewBox="0 0 45.207 45.207">
  <g id="Lupa" transform="translate(-1420.793 -1046)">
    <path id="Caminho_2" data-name="Caminho 2" d="M44.172,39.178,32.387,27.392a17.5,17.5,0,0,0,2.931-9.734A17.659,17.659,0,1,0,17.659,35.318a17.5,17.5,0,0,0,9.734-2.931l3.258,3.258h0l8.526,8.526a3.531,3.531,0,1,0,4.994-4.994ZM26.977,30.526h0a15.909,15.909,0,1,1,3.549-3.549A15.97,15.97,0,0,1,26.977,30.526Zm1.852.8a17.719,17.719,0,0,0,2.5-2.5l2.505,2.505a21.432,21.432,0,0,1-2.5,2.5Zm14.094,11.6a1.765,1.765,0,0,1-2.5,0l-7.84-7.84a23.2,23.2,0,0,0,2.5-2.5l7.84,7.84a1.764,1.764,0,0,1,0,2.5Z" transform="translate(1420.793 1046)" fill="#fff"/>
    <path id="Caminho_3" data-name="Caminho 3" d="M54.127,40A14.127,14.127,0,1,0,68.254,54.127,14.143,14.143,0,0,0,54.127,40Zm0,26.488A12.361,12.361,0,1,1,66.488,54.127,12.375,12.375,0,0,1,54.127,66.488Z" transform="translate(1384.325 1009.532)" fill="#fff"/>
  </g>
</svg>
