<svg xmlns="http://www.w3.org/2000/svg" width="1098" height="393" viewBox="0 0 1098 393">
  <g id="logo_slogan" transform="translate(-498 -666)">
    <g id="logo_slogan-2" data-name="logo_slogan" transform="translate(-597.702 563)">
      <g id="logo" transform="translate(29 -18)">
        <path id="Caminho_48" data-name="Caminho 48" d="M227.508,162.22c-47.016-49.266-94.5-78.257-94.5-78.257,39.124,17.816,71.775,42.634,98.608,69.324l27.018-58.77C171.937,10.375,9.37,30.029,9.37,30.029,95.4,51.648,119.354,182.2,160.149,230.687a72.581,72.581,0,0,0,26.808,19.7Z" transform="translate(1059.332 92.964)" fill="#fff"/>
        <path id="Caminho_49" data-name="Caminho 49" d="M355.33,254.054c1.679-66.419-19.134-112.385-50.576-144.1-4.727,15.5-12.266,38.662-22.064,63.808,66.822,70,94.813,149.52,94.813,149.52,8.606,11.553,15-.6,15-.6C385.378,301.7,355.33,254.054,355.33,254.054Z" transform="translate(1015.484 79.823)" fill="#fff"/>
        <path id="Caminho_50" data-name="Caminho 50" d="M228,279.918c43.859,15.641,99.557-1.049,99.557-1.049-15.557-30.686-36.211-58.09-57.477-81.439C258.544,225.967,244.271,256.074,228,279.918Z" transform="translate(1024.258 65.789)" fill="#fff"/>
      </g>
      <text id="epa_Digital" data-name="epa Digital" transform="translate(1403.702 332)" fill="#fff" font-size="166" font-family="SegoeUI, Segoe UI"><tspan x="0" y="0">epa Di</tspan><tspan y="0" letter-spacing="-0.01em">g</tspan><tspan y="0">ital</tspan></text>
    </g>
    <text id="A_inovação_do_sacolão_digital" data-name="A inovação do sacolão digital" transform="translate(498 1040)" fill="#fff" font-size="88" font-family="Lato-Regular, Lato"><tspan x="0" y="0">A inovação do sacolão digital</tspan></text>
  </g>
</svg>
